<svg xmlns="http://www.w3.org/2000/svg" viewBox="0 0 24 24" fill="#3776AB">
  <!-- Script 'S' logo -->
  <path d="M12 2C6.48 2 2 6.48 2 12s4.48 10 10 10 10-4.48 10-10S17.52 2 12 2zm0 18c-4.41 0-8-3.59-8-8s3.59-8 8-8 8 3.59 8 8-3.59 8-8 8z"/>
  <path d="M14.5 8c0-.83-.67-1.5-1.5-1.5H9.5C8.67 6.5 8 7.17 8 8c0 .83.67 1.5 1.5 1.5H13c1.1 0 2 .9 2 2s-.9 2-2 2h-1v-2h1c0-.55-.45-1-1-1H9.5c-1.1 0-2 .9-2 2s.9 2 2 2H13c1.93 0 3.5-1.57 3.5-3.5S14.93 8 14.5 8z"/>
  <text x="12" y="16" font-family="monospace" font-size="8" text-anchor="middle" fill="#3776AB">S</text>
</svg>